<?xml version="1.0" standalone="no"?><!DOCTYPE svg PUBLIC "-//W3C//DTD SVG 1.1//EN" "http://www.w3.org/Graphics/SVG/1.1/DTD/svg11.dtd"><svg t="1481528208948" class="icon" style="" viewBox="0 0 1024 1024" version="1.1" xmlns="http://www.w3.org/2000/svg" p-id="2753" xmlns:xlink="http://www.w3.org/1999/xlink" width="20" height="20"><defs><style type="text/css"></style></defs><path d="M906.581333 757.312 634.965333 485.674667c9.706667-28.288 15.253333-58.517333 15.253333-90.112 0-153.173333-124.138667-277.333333-277.312-277.333333-153.173333 0-277.333333 124.16-277.333333 277.333333 0 153.194667 124.16 277.333333 277.333333 277.333333 67.136 0 128.682667-23.872 176.682667-63.552l16.618667 16.618667 0 110.016 4.458667 0 38.208 0 41.344 0 0 42.666667 0 42.666667 48.448 0 37.312 0 0 21.333333 0 42.666667 42.666667 0 85.333333 0 42.666667 0 0-42.666667 0-85.333333L906.581333 757.312zM372.906667 630.229333c-129.621333 0-234.666667-105.088-234.666667-234.666667 0-129.6 105.066667-234.666667 234.666667-234.666667s234.645333 105.066667 234.645333 234.666667S502.528 630.229333 372.906667 630.229333zM863.978667 842.645333l-85.333333 0 0-64-0.448 0-42.218667 0L698.666667 778.645333l0-42.666667 0-42.666667-48.448 0-41.344 0 0-85.333333-0.341333 0-28.501333-28.501333c14.037333-15.786667 26.496-33.002667 36.672-51.690667l247.274667 247.253333L863.978667 842.645333zM341.333333 277.333333c-47.125333 0-85.333333 38.208-85.333333 85.333333s38.208 85.333333 85.333333 85.333333 85.333333-38.208 85.333333-85.333333S388.458667 277.333333 341.333333 277.333333zM341.333333 405.333333c-23.552 0-42.666667-19.114667-42.666667-42.666667s19.114667-42.666667 42.666667-42.666667 42.666667 19.114667 42.666667 42.666667S364.885333 405.333333 341.333333 405.333333z" p-id="2754" fill="#8a8a8a"></path></svg>