<?xml version="1.0" standalone="no"?><!DOCTYPE svg PUBLIC "-//W3C//DTD SVG 1.1//EN" "http://www.w3.org/Graphics/SVG/1.1/DTD/svg11.dtd"><svg t="1481528164721" class="icon" style="" viewBox="0 0 1024 1024" version="1.1" xmlns="http://www.w3.org/2000/svg" p-id="1846" xmlns:xlink="http://www.w3.org/1999/xlink" width="20" height="20"><defs><style type="text/css"></style></defs><path d="M508.116251 181.926527c79.120088 0 163.027122 66.655965 163.027122 116.422139l0 116.489879c0 44.821169-18.628445 130.602337-68.620419 169.981742-12.735083 10.025491-19.351003 25.966924-17.431709 42.111577s12.057685 30.076472 26.824961 36.873032l202.745226 96.190518c1.580595 0.722558 19.441323 3.725689 19.441323 28.676516l0 45.498567L182.152326 834.170496 182.152326 786.910695c0-18.538126 13.909239-24.363749 19.441323-26.892701l204.619361-96.619537c14.654377-6.7514 24.792767-20.61548 26.757222-36.647233 1.987034-16.009173-4.493407-31.928026-17.07043-42.021257-48.411378-38.905226-70.968732-124.347696-70.968732-169.846262l0-116.489879C344.931069 249.666329 429.696141 181.926527 508.116251 181.926527M508.116251 135.298964c-102.874179 0-209.767585 85.916648-209.767585 163.049702l0 116.489879c0 50.895171 23.212172 153.859669 88.377861 206.199956l-204.619361 96.596957c0 0-46.559824 20.750959-46.559824 46.582404l0 69.952635c0 25.763705 20.841279 46.582404 46.559824 46.582404l651.97301 0c25.763705 0 46.582404-20.841279 46.582404-46.582404l0-69.952635c0-27.38946-46.582404-46.582404-46.582404-46.582404l-202.745226-96.190518c64.510871-50.827431 86.368247-150.675899 86.368247-206.606395l0-116.489879C717.725777 221.193032 610.99043 135.298964 508.116251 135.298964L508.116251 135.298964z" p-id="1847" fill="#8a8a8a"></path></svg>